PathFileType  4	(X/Y/Z) C:\Users\antoi\Documents\MyRepositories\mobilecap\ResultsAnalysis
DataRate	CameraRate	NumFrames	NumMarkers	Units	OrigDataRate	OrigDataStartFrame	OrigNumFrames
100.0	100.0	6	51	mm	100.0	570	1139
Frame#	Time	r_knee			r_shank_antsup			r_ankle			r_calc			r_5meta			r_toe			L_knee			L_shank_antsup			L_ankle			L_calc			L_5meta			L_toe			r_sh2			r_sh3			r_sh4			L_sh2			L_sh3			r_thigh1			r_thigh2			r_thigh3			r_thigh4			r_thigh5			L_thigh1			L_thigh2			L_thigh3			L_thigh4			r.ASIS			r.PSIS			L.ASIS			L.PSIS			C7			R_Shoulder			L_Shoulder			R_Sternum			L_Sternum			R_humerus			R_elbow_med			R_elbow_lat			R_forearm			R_wrist_radius			R_wrist_ulna			L_humerus			L_elbow_med			L_elbow_lat			L_forearm			L_wrist_radius			L_wrist_ulna			R_HJC			L_HJC			R_HJC_reg			L_HJC_reg			
		X1	Y1	Z1	X2	Y2	Z2	X3	Y3	Z3	X4	Y4	Z4	X5	Y5	Z5	X6	Y6	Z6	X7	Y7	Z7	X8	Y8	Z8	X9	Y9	Z9	X10	Y10	Z10	X11	Y11	Z11	X12	Y12	Z12	X13	Y13	Z13	X14	Y14	Z14	X15	Y15	Z15	X16	Y16	Z16	X17	Y17	Z17	X18	Y18	Z18	X19	Y19	Z19	X20	Y20	Z20	X21	Y21	Z21	X22	Y22	Z22	X23	Y23	Z23	X24	Y24	Z24	X25	Y25	Z25	X26	Y26	Z26	X27	Y27	Z27	X28	Y28	Z28	X29	Y29	Z29	X30	Y30	Z30	X31	Y31	Z31	X32	Y32	Z32	X33	Y33	Z33	X34	Y34	Z34	X35	Y35	Z35	X36	Y36	Z36	X37	Y37	Z37	X38	Y38	Z38	X39	Y39	Z39	X40	Y40	Z40	X41	Y41	Z41	X42	Y42	Z42	X43	Y43	Z43	X44	Y44	Z44	X45	Y45	Z45	X46	Y46	Z46	X47	Y47	Z47	X48	Y48	Z48	X49	Y49	Z49	X50	Y50	Z50	X51	Y51	Z51	

570	5.69000000	-272.88604	615.78122	-383.50438	-245.32268	472.74295	-360.33790	-304.25284	107.44106	-306.03418	-358.23991	74.93614	-371.03551	-172.56871	42.93967	-260.91369	-127.94950	66.15248	-309.47405	-285.27575	613.35921	-874.97186	-239.35654	420.26809	-888.45086	-320.89967	118.31923	-934.96116	-375.51531	76.27982	-877.79589	-181.16909	35.74770	-983.73057	-136.20871	64.68516	-925.75658	-247.20397	360.49658	-345.08770	-314.39158	476.16108	-331.14558	-319.40737	366.40300	-306.52731	-310.76191	436.80062	-936.86420	-320.64927	317.34331	-938.66871	-246.18348	912.93386	-404.61094	-229.31238	804.17678	-387.01473	-290.07571	772.54922	-378.01231	-353.12893	893.45717	-435.41582	-338.40252	779.00428	-405.89125	-223.84203	906.25632	-840.52013	-224.75906	772.11355	-856.59769	-332.89376	913.52764	-850.06397	-331.66332	776.91857	-874.49049	-202.69585	1172.30090	-494.87781	-386.13818	1209.22468	-581.31229	-212.10599	1168.02103	-767.60517	-388.14221	1211.87240	-672.79289	-279.88244	1689.65566	-633.45507	-204.15812	1653.24350	-460.61548	-227.98700	1664.71663	-804.74744	-135.85823	1611.06905	-607.35848	-138.50109	1611.25495	-658.23682	-284.76780	1416.13237	-360.23403	-409.56065	1316.52749	-382.37074	-375.85100	1346.13274	-303.91847	-183.70299	1318.40804	-388.37257	-102.47177	1314.37678	-431.56877	-108.71055	1281.26373	-413.78298	-273.80722	1395.32563	-894.87570	-387.79493	1325.96669	-871.20685	-335.99967	1327.83864	-939.33568	-156.55914	1300.09595	-844.93809	-97.33933	1301.71372	-797.10868	-99.80746	1272.61636	-816.28318	-284.22908	1079.76094	-530.27025	-294.99291	1081.26980	-727.44667	-275.71341	1086.26397	-534.74298	-279.65577	1091.47374	-714.75522	
571	5.70000000	-274.84125	615.52340	-383.66023	-247.36998	472.62335	-360.52465	-304.66284	107.10282	-305.97081	-358.44589	74.59779	-370.85737	-172.60963	42.73815	-260.82974	-128.17847	66.14238	-309.28757	-287.02068	613.21111	-875.01292	-240.74012	420.36858	-888.67403	-321.13379	117.97610	-934.99133	-375.60774	76.07048	-877.91378	-181.19671	35.62439	-983.81262	-136.28583	64.65406	-925.82317	-248.78561	360.45661	-345.12455	-315.76851	476.09369	-330.77783	-321.10893	366.25491	-306.76842	-312.17541	436.55160	-936.92930	-321.70833	316.85387	-938.52507	-245.34031	912.15059	-405.11710	-229.38215	803.54792	-387.32550	-290.46534	772.24790	-378.31970	-352.51609	893.79042	-435.38027	-338.76695	779.28094	-406.00854	-223.50909	905.58828	-840.77293	-225.37926	771.36396	-856.60415	-332.60235	913.51340	-849.96767	-332.22505	776.97438	-874.42960	-200.84294	1172.09776	-495.34035	-385.20496	1207.59614	-581.18689	-211.27203	1167.95241	-768.39301	-387.44977	1210.35922	-672.84212	-284.65548	1689.39742	-633.85223	-208.81772	1653.69412	-460.65975	-232.82362	1665.01202	-805.01229	-139.84250	1611.91241	-607.86630	-142.31457	1612.15392	-658.56405	-287.98185	1415.83002	-360.86771	-412.03261	1315.07318	-383.24441	-378.88982	1345.82322	-305.14079	-185.79892	1319.21288	-388.70949	-104.31076	1316.11597	-431.44600	-110.36556	1282.96028	-413.58792	-277.00151	1395.33512	-895.24136	-390.27612	1325.17124	-871.11086	-338.94431	1327.52556	-939.43329	-158.78960	1301.29695	-845.97159	-99.18583	1303.45215	-798.70269	-101.73693	1274.19281	-817.49928	-281.88912	1078.93443	-530.70540	-293.37145	1080.51988	-727.84125	-273.47299	1085.29388	-535.21290	-277.88650	1090.72710	-715.44422	
572	5.71000000	-276.49210	615.27097	-383.91351	-249.13073	472.61887	-360.45503	-305.00164	106.72813	-305.89096	-358.68814	74.25875	-370.54625	-172.65063	42.53448	-260.75131	-128.39684	66.17254	-309.12170	-288.24454	613.13299	-875.09503	-241.69839	420.42850	-888.88925	-321.32640	117.73182	-935.15278	-375.68649	75.89123	-877.99241	-181.22489	35.50500	-983.91310	-136.33121	64.61518	-925.90856	-250.16978	360.43477	-345.06141	-316.50933	476.26159	-329.78129	-322.58554	365.97299	-306.79653	-313.16214	436.43208	-937.28324	-322.37285	316.66993	-938.77929	-244.90461	911.82388	-405.24830	-229.66111	802.83397	-387.65524	-290.85343	772.02107	-378.46702	-352.10924	894.04672	-435.33269	-339.12515	779.44758	-406.16683	-223.26863	905.30836	-841.19554	-225.76344	770.88986	-856.63321	-332.34076	913.59860	-850.03854	-332.58753	777.10831	-874.50577	-199.55133	1171.68327	-495.72428	-384.55239	1205.97034	-581.09305	-210.68004	1167.37747	-768.79907	-387.19022	1208.90729	-672.76853	-289.09892	1689.14442	-634.25835	-213.13726	1653.93085	-460.69406	-237.32728	1665.41445	-805.54237	-143.72022	1612.48954	-608.55165	-146.02305	1612.77246	-659.02077	-290.99338	1415.24709	-361.37346	-414.29073	1313.55618	-384.70070	-381.50623	1344.42306	-306.30896	-187.73326	1319.71002	-389.03713	-106.07786	1317.50577	-431.21388	-111.87433	1284.05612	-413.77565	-279.92504	1395.09646	-895.52376	-392.67897	1324.10842	-871.22556	-341.60860	1327.02272	-939.73641	-160.75575	1302.21176	-847.18793	-100.92243	1304.88194	-800.35455	-103.39974	1275.51284	-819.02183	-280.24646	1078.01923	-530.88707	-292.27386	1079.50852	-727.99150	-271.55689	1084.08324	-535.49755	-276.74427	1089.85795	-715.73066	
573	5.72000000	-277.86008	615.04269	-384.27930	-250.50840	472.60072	-360.32342	-305.15912	106.50207	-305.79944	-358.89471	73.99627	-370.28337	-172.70611	42.39099	-260.67872	-128.53866	66.17622	-309.02428	-288.94949	613.09015	-875.27471	-242.19593	420.40907	-889.06274	-321.41842	117.62506	-935.43589	-375.73342	75.78125	-878.07610	-181.25144	35.39460	-984.02079	-136.35962	64.59625	-926.00205	-251.30674	360.33801	-344.80987	-317.52257	476.35751	-329.13945	-323.79494	365.62346	-306.69429	-313.67625	436.37285	-937.76361	-322.66383	316.69378	-939.29042	-244.77087	911.62193	-405.18445	-229.94296	802.23370	-387.98594	-291.15048	771.83582	-378.59661	-351.86096	894.24434	-435.24727	-339.45031	779.50276	-406.35396	-223.00718	905.36086	-841.73329	-225.93328	770.83475	-856.89068	-332.10053	913.80021	-850.37905	-332.75860	777.30178	-874.71733	-198.88336	1171.29203	-496.08324	-384.30342	1204.47165	-581.02266	-210.40317	1166.88362	-769.03981	-387.33830	1207.58527	-672.57716	-293.26840	1688.98644	-634.49133	-217.21073	1653.92990	-460.74738	-241.48812	1665.79829	-806.34995	-147.33870	1612.84293	-609.07018	-149.53875	1613.21717	-659.52287	-293.73492	1414.36826	-361.93268	-416.28942	1311.87847	-386.12998	-383.82164	1342.49918	-307.41346	-189.54101	1319.97609	-389.19895	-107.75485	1318.55288	-431.00101	-113.18530	1284.64518	-414.29022	-282.62199	1394.69259	-895.76098	-394.86074	1322.87429	-871.31196	-344.03148	1326.34455	-940.13695	-162.53440	1302.93212	-848.43932	-102.55020	1305.99206	-801.96223	-104.84990	1276.60846	-820.75639	-279.16450	1077.16908	-531.01867	-291.59937	1078.61523	-728.09780	-270.14482	1083.01657	-535.73994	-276.11635	1089.14264	-715.87207	
574	5.73000000	-278.84745	614.88524	-384.51661	-251.39496	472.52058	-360.29465	-305.25365	106.38744	-305.78942	-358.99604	73.84698	-370.15220	-172.78154	42.28356	-260.62208	-128.62134	66.20038	-308.94962	-289.15097	613.17732	-875.63598	-242.28208	420.37573	-889.26975	-321.42199	117.59787	-935.75815	-375.73847	75.69437	-878.14605	-181.25408	35.29501	-984.10593	-136.38246	64.58876	-926.07926	-252.05962	360.22033	-344.59877	-318.71947	476.28165	-329.17198	-324.72009	365.46409	-306.59624	-313.72049	436.28225	-938.13474	-322.62742	316.70132	-939.83542	-244.76998	911.34291	-405.19817	-230.04081	801.87811	-388.16699	-291.37161	771.64280	-378.79939	-351.77440	894.33681	-435.17616	-339.71475	779.50801	-406.52872	-222.79869	905.55723	-842.16435	-225.88002	771.10538	-857.32161	-331.92531	914.03740	-850.87546	-332.73022	777.50054	-875.01008	-198.82837	1170.95606	-496.57910	-384.57590	1203.19002	-581.00081	-210.66649	1166.99605	-769.22788	-387.84091	1206.43704	-672.47159	-297.23238	1688.84280	-634.57758	-221.06421	1653.78245	-460.78170	-245.40825	1665.67219	-806.96090	-150.71971	1613.03151	-609.52229	-152.61382	1613.58341	-659.81011	-296.14478	1413.28153	-362.59325	-418.17090	1310.13500	-387.01124	-385.79652	1340.93003	-308.24874	-191.20415	1320.11080	-389.21070	-109.22484	1319.27356	-430.86543	-114.36451	1285.09706	-414.54343	-285.06575	1394.18334	-896.08354	-396.40938	1321.65967	-870.92821	-346.25710	1325.51889	-940.48718	-164.17338	1303.46440	-849.69944	-104.01956	1306.80353	-803.29377	-106.20742	1277.42173	-822.22500	-278.57753	1076.41856	-531.39508	-291.33780	1078.16464	-728.45086	-269.52929	1082.45912	-536.16974	-275.95056	1088.84490	-716.07946	
575	5.74000000	-279.31738	614.83736	-384.58476	-251.78406	472.43929	-360.35309	-305.38917	106.26542	-305.85798	-359.06747	73.73741	-370.06333	-172.86085	42.20194	-260.61727	-128.66193	66.25270	-308.94130	-288.83796	613.41012	-876.20057	-242.06947	420.33790	-889.54317	-321.40323	117.56744	-936.02410	-375.72922	75.60114	-878.24772	-181.23178	35.22580	-984.15612	-136.40488	64.58955	-926.14369	-252.39881	360.11691	-344.56203	-319.27442	476.14414	-329.38694	-325.18840	365.52530	-306.49669	-313.36290	436.13220	-938.37390	-322.25927	316.65480	-940.38219	-244.83104	911.09862	-405.28077	-230.05544	801.67261	-388.20535	-291.53606	771.48535	-379.01968	-351.86891	894.30430	-435.16048	-339.88944	779.48378	-406.66490	-222.71921	905.80741	-842.47023	-225.64976	771.53668	-857.80508	-331.87345	914.19983	-851.28071	-332.54926	777.66514	-875.33784	-199.15427	1170.70166	-497.27542	-385.29013	1202.14574	-580.98312	-211.43191	1167.23303	-769.36502	-388.65301	1205.50073	-672.45920	-300.98999	1688.63171	-634.62277	-224.60522	1653.57323	-460.78327	-249.14207	1665.09226	-807.15582	-153.96890	1613.16931	-610.04567	-155.30787	1613.86552	-659.89715	-298.20792	1412.13398	-363.25175	-419.71346	1308.41762	-387.80292	-387.59821	1339.43914	-308.82359	-192.63973	1320.09933	-389.27830	-110.40844	1319.76635	-430.71049	-115.43268	1285.57696	-414.36879	-287.23461	1393.62842	-896.52457	-397.42165	1320.53150	-870.30585	-348.23963	1324.65163	-940.81744	-165.65219	1303.74475	-850.83924	-105.30874	1307.39332	-804.43669	-107.43233	1277.96462	-823.37387	-278.45946	1075.81732	-531.84438	-291.58655	1077.88204	-728.87330	-269.55308	1082.17193	-536.82211	-276.15330	1088.75650	-716.35661	
